# xmcd
#
# Track frame offsets: 
#        150
#        11545
#        24610
#        39150
#        49995
#        63275
#        80445
#        92485
#        107147
#        125042
#        137925
#        150142
#        165112
#        176640
#
# Disc length: 2492 seconds
#
# Revision: 3
# Processed by: cddbd v1.5PL3 Copyright (c) Steve Scherf et al.
# Submitted via: ExactAudioCopy v0.90b4
#
DISCID=a409ba0e
DTITLE=Johnny Russell - Actin' Naturally
DYEAR=2000
DGENRE=Country
TTITLE0=Act Naturally
TTITLE1=In A Mansion Stands My Love
TTITLE2=Ain't You Even Gonna Cry
TTITLE3=Do I Even Cross Your Mind
TTITLE4=40 Acres Of Hell
TTITLE5=I'm Leavin'
TTITLE6=Making Plans
TTITLE7=I'll Be Gone Before You Even Know I Left
TTITLE8=I Give Up
TTITLE9=Let's Fall To Pieces Together
TTITLE10=He's Got You Right Where I Want You
TTITLE11=The New Wore Off
TTITLE12=I'm Stayin'
TTITLE13=Got No Reason Now For Going Home
EXTD=YEAR: 2000
EXTT0=
EXTT1=
EXTT2=
EXTT3=
EXTT4=
EXTT5=
EXTT6=
EXTT7=
EXTT8=
EXTT9=
EXTT10=
EXTT11=
EXTT12=
EXTT13=
PLAYORDER=
